<svg id="visual" viewBox="0 0 2500 1600" width="2500" height="1600" xmlns="http://www.w3.org/2000/svg" xmlns:xlink="http://www.w3.org/1999/xlink" version="1.1"><rect x="0" y="0" width="2500" height="1600" fill="#000e0b"></rect><path d="M1173 1600L1451 1600L1451 1477L1345 1477L1345 1354L1196 1354L1196 1231L1151 1231L1151 1108L1484 1108L1484 985L1546 985L1546 862L1454 862L1454 738L1142 738L1142 615L1493 615L1493 492L1295 492L1295 369L1492 369L1492 246L1114 246L1114 123L1501 123L1501 0L2500 0L2500 123L2500 123L2500 246L2500 246L2500 369L2500 369L2500 492L2500 492L2500 615L2500 615L2500 738L2500 738L2500 862L2500 862L2500 985L2500 985L2500 1108L2500 1108L2500 1231L2500 1231L2500 1354L2500 1354L2500 1477L2500 1477L2500 1600L2500 1600Z" fill="#247800"></path><path d="M1732 1600L1530 1600L1530 1477L1705 1477L1705 1354L1899 1354L1899 1231L1874 1231L1874 1108L1909 1108L1909 985L1753 985L1753 862L1936 862L1936 738L1601 738L1601 615L1622 615L1622 492L1853 492L1853 369L1887 369L1887 246L1542 246L1542 123L1676 123L1676 0L2500 0L2500 123L2500 123L2500 246L2500 246L2500 369L2500 369L2500 492L2500 492L2500 615L2500 615L2500 738L2500 738L2500 862L2500 862L2500 985L2500 985L2500 1108L2500 1108L2500 1231L2500 1231L2500 1354L2500 1354L2500 1477L2500 1477L2500 1600L2500 1600Z" fill="#10640d"></path><path d="M2110 1600L2066 1600L2066 1477L2272 1477L2272 1354L2017 1354L2017 1231L2258 1231L2258 1108L2110 1108L2110 985L2092 985L2092 862L2263 862L2263 738L2267 738L2267 615L1960 615L1960 492L1970 492L1970 369L2246 369L2246 246L2241 246L2241 123L1962 123L1962 0L2500 0L2500 123L2500 123L2500 246L2500 246L2500 369L2500 369L2500 492L2500 492L2500 615L2500 615L2500 738L2500 738L2500 862L2500 862L2500 985L2500 985L2500 1108L2500 1108L2500 1231L2500 1231L2500 1354L2500 1354L2500 1477L2500 1477L2500 1600L2500 1600Z" fill="#005011"></path></svg>